<svg xmlns="http://www.w3.org/2000/svg" width="642" height="698" viewBox="0 0 642 698">
<g>
<path d="M 0.00 0.00 L 642.00 0.00 L 642.00 698.00 L 0.00 698.00 ZM 381.00 441.41 C387.51,444.05 389.77,444.58 390.67,443.68 C394.27,440.05 404.99,426.41 404.94,425.53 C404.90,424.97 400.29,420.77 394.69,416.20 C389.08,411.64 382.97,406.60 381.09,405.00 L 377.68 402.09 L 381.59 397.36 C397.33,378.30 427.00,340.66 427.00,339.76 C427.00,339.15 426.38,337.95 425.62,337.08 C424.21,335.46 410.00,311.12 410.00,310.31 C410.00,310.07 416.59,306.68 424.65,302.79 C436.83,296.91 439.62,295.91 441.14,296.86 C443.85,298.55 446.35,298.25 448.81,295.96 C452.39,292.62 451.52,287.94 446.89,285.63 C444.41,284.40 444.05,282.77 437.93,245.50 C437.30,241.65 436.15,235.21 435.37,231.19 C434.02,224.21 434.05,223.75 435.98,221.30 C438.43,218.19 438.55,215.23 436.36,212.11 C434.94,210.07 434.13,209.84 430.13,210.29 C424.92,210.88 423.66,210.34 407.09,200.52 C401.27,197.06 391.33,191.32 385.00,187.76 C347.96,166.94 328.78,155.55 328.36,154.12 C326.82,148.82 325.44,147.50 321.50,147.50 C317.55,147.50 316.19,148.82 314.63,154.12 C314.22,155.53 295.30,166.98 278.00,176.30 C274.98,177.92 271.38,180.00 270.00,180.92 C268.62,181.83 265.02,183.88 262.00,185.48 C255.85,188.71 246.00,194.85 246.00,195.45 C246.00,197.84 247.71,199.02 251.36,199.15 L 255.50 199.30 L 251.00 199.90 C248.52,200.23 246.59,200.95 246.69,201.50 C246.80,202.05 246.01,202.82 244.94,203.22 C243.82,203.63 243.00,204.87 243.00,206.16 C243.00,208.24 242.92,208.27 241.68,206.58 C238.62,202.39 237.08,204.75 216.91,244.61 C206.02,266.12 196.81,284.91 196.45,286.36 C195.82,288.86 195.99,289.01 199.64,289.12 C201.76,289.18 204.85,289.58 206.50,290.00 C208.76,290.57 207.71,290.79 202.25,290.88 C197.86,290.95 195.00,291.42 195.00,292.07 C195.00,293.49 196.57,296.48 200.47,302.50 C203.91,307.80 212.94,323.16 217.53,331.50 C219.04,334.25 221.97,339.42 224.04,343.00 C243.45,376.56 244.83,379.36 244.29,384.15 C243.84,388.13 244.08,388.94 246.11,390.36 C248.88,392.30 251.32,392.44 253.95,390.80 C256.06,389.48 259.35,390.68 296.50,406.27 C306.95,410.66 320.45,416.29 326.50,418.79 C332.55,421.29 343.67,425.96 351.21,429.17 C358.74,432.37 365.20,435.00 365.55,435.00 C365.91,435.00 367.62,435.67 369.35,436.49 C371.08,437.30 376.33,439.52 381.00,441.41 ZM 308.00 358.78 C294.00,365.49 293.00,365.90 293.00,364.97 C293.00,364.46 296.81,359.30 301.47,353.51 C306.13,347.72 310.34,342.19 310.83,341.24 C312.10,338.77 312.21,330.26 311.01,328.01 C310.33,326.75 310.33,325.92 311.00,325.50 C311.62,325.12 312.00,316.60 312.00,303.16 L 312.00 302.83 C312.00,285.62 312.00,279.88 309.29,277.96 C307.93,277.00 305.90,277.00 302.84,277.00 L 302.72 277.00 C297.28,277.00 296.79,276.84 298.53,275.68 C300.81,274.14 326.41,262.56 329.75,261.55 L 332.00 260.87 L 332.00 299.33 C332.00,333.47 332.18,337.85 333.58,338.39 C334.45,338.73 335.28,339.00 335.42,339.00 C336.12,339.00 358.42,310.38 370.76,293.64 C373.66,289.71 376.58,285.83 377.26,285.00 C377.95,284.17 380.23,281.14 382.34,278.25 C384.45,275.36 386.58,273.24 387.07,273.55 C387.57,273.85 389.40,272.48 391.13,270.50 C392.90,268.48 394.89,267.13 395.66,267.42 C396.40,267.71 398.22,267.49 399.68,266.93 C401.92,266.08 403.08,266.38 406.92,268.81 C435.11,286.64 438.33,288.65 438.35,290.70 C438.35,290.96 438.30,291.22 438.24,291.52 L 438.23 291.58 C437.86,293.50 436.46,294.72 432.62,296.45 C417.40,303.30 408.16,308.14 407.62,309.54 C407.29,310.40 404.88,312.04 402.26,313.19 C395.77,316.03 349.59,338.32 344.00,341.31 C341.52,342.63 339.34,344.57 339.15,345.61 C338.40,349.59 335.80,351.24 331.24,350.62 C326.76,350.01 325.05,350.61 308.00,358.78 ZM 389.30 550.62 C396.07,552.32 403.31,551.54 409.34,548.47 C412.01,547.11 414.37,546.00 414.59,546.00 C414.82,546.00 415.00,547.12 415.00,548.50 C415.00,550.91 415.23,551.00 421.62,551.00 L 428.24 551.00 L 427.84 528.17 C427.41,503.26 427.37,503.08 420.88,496.78 C416.26,492.30 411.79,491.00 400.92,491.00 C390.61,491.00 382.65,493.04 377.88,496.89 L 375.69 498.67 L 378.03 502.84 C379.32,505.13 380.68,507.00 381.06,507.00 C381.44,507.00 383.88,506.06 386.48,504.91 C392.02,502.46 402.98,501.92 407.69,503.87 C410.95,505.22 413.00,508.57 413.00,512.55 C413.00,514.97 412.90,515.00 403.75,515.01 C389.44,515.03 379.61,518.32 375.96,524.30 C373.58,528.21 373.34,536.82 375.50,541.00 C377.66,545.18 383.30,549.11 389.30,550.62 ZM 302.67 550.33 C303.03,550.70 306.14,551.00 309.57,551.00 L 315.82 551.00 L 316.16 531.75 C316.49,513.03 316.57,512.41 319.00,509.15 C322.41,504.58 325.89,503.00 332.52,503.00 C344.20,503.00 345.34,505.37 346.00,531.00 L 346.50 550.50 L 353.25 550.80 L 360.00 551.09 L 360.00 530.73 C360.00,507.64 359.05,502.48 353.85,497.15 C349.35,492.56 344.69,490.88 335.87,490.70 C329.10,490.56 327.56,490.89 322.12,493.70 L 316.00 496.86 L 316.00 468.00 L 302.00 468.00 L 302.00 508.83 C302.00,531.29 302.30,549.97 302.67,550.33 ZM 175.71 550.38 C176.10,550.77 179.14,550.95 182.46,550.79 L 188.50 550.50 L 188.79 543.00 C189.08,535.58 189.14,535.45 193.68,530.83 C196.20,528.26 198.86,526.39 199.60,526.68 C200.68,527.09 211.88,540.84 217.87,549.11 C219.00,550.67 220.53,551.00 226.56,551.00 C230.59,551.00 234.13,550.60 234.43,550.12 C234.95,549.27 227.03,538.43 215.57,524.32 C212.53,520.57 210.03,517.00 210.02,516.39 C210.01,515.77 215.18,510.16 221.50,503.91 C227.82,497.67 233.00,492.20 233.00,491.78 C233.00,491.35 229.32,491.00 224.83,491.00 L 216.66 491.00 L 204.42 503.00 C197.69,509.60 191.47,515.00 190.61,515.00 C189.23,515.00 189.00,512.11 188.77,491.75 L 188.50 468.50 L 175.00 467.91 L 175.00 508.79 C175.00,531.27 175.32,549.99 175.71,550.38 ZM 379.45 437.13 C380.05,437.68 380.05,437.99 379.45,437.98 C378.17,437.96 361.98,431.48 354.31,427.93 C350.91,426.35 345.73,424.19 342.81,423.12 C336.05,420.65 305.40,408.05 297.50,404.50 C294.20,403.01 284.34,398.90 275.59,395.35 C256.90,387.77 256.00,387.33 256.00,385.66 C256.00,384.33 288.38,367.99 291.00,368.00 C291.83,368.00 299.70,373.71 308.50,380.70 C317.30,387.68 336.65,403.04 351.50,414.82 C366.35,426.61 378.93,436.65 379.45,437.13 ZM 445.67 550.33 C446.03,550.70 449.18,551.00 452.67,551.00 L 459.00 551.00 L 459.02 533.25 C459.05,513.04 460.15,508.71 466.19,505.02 C470.34,502.49 480.44,502.22 483.77,504.55 C488.05,507.55 488.48,509.66 489.00,530.50 L 489.50 550.50 L 496.25 550.80 L 503.00 551.09 L 503.00 530.22 C503.00,506.83 502.14,502.30 496.68,496.83 C492.09,492.25 487.63,490.74 478.94,490.85 C471.09,490.95 466.38,492.34 461.85,495.90 C459.55,497.71 459.13,497.78 458.60,496.41 C458.27,495.54 458.00,493.97 458.00,492.92 C458.00,491.22 457.24,491.00 451.50,491.00 L 445.00 491.00 L 445.00 520.33 C445.00,536.47 445.30,549.97 445.67,550.33 ZM 256.00 551.38 C260.30,552.19 272.38,551.13 276.85,549.55 C279.21,548.72 282.40,547.14 283.94,546.04 C292.05,540.26 292.00,525.26 283.86,520.22 C282.00,519.07 275.76,517.18 269.99,516.00 C264.22,514.83 258.38,513.33 257.00,512.67 C254.39,511.43 253.28,507.58 254.85,505.18 C257.10,501.72 272.98,501.43 279.41,504.73 C282.16,506.14 282.43,506.09 284.13,503.86 C287.09,500.00 288.07,496.30 286.48,494.99 C281.93,491.21 261.23,489.68 252.92,492.51 C248.13,494.15 242.91,498.20 241.12,501.68 C240.50,502.89 240.00,506.37 240.00,509.43 C240.00,514.41 240.38,515.41 243.60,518.98 C247.50,523.29 249.81,524.20 262.94,526.52 C272.75,528.26 276.00,530.01 276.00,533.54 C276.00,539.26 263.08,542.04 253.50,538.39 C243.55,534.59 243.08,534.52 241.53,536.58 C239.50,539.29 238.63,543.85 239.87,545.34 C240.92,546.60 251.33,550.51 256.00,551.38 ZM 338.00 340.48 C338.00,341.74 338.19,341.65 366.50,327.98 C374.20,324.26 386.73,318.23 394.35,314.58 C407.91,308.08 408.16,307.89 406.78,305.72 C401.36,297.19 396.00,288.23 396.00,287.70 C396.00,287.35 394.15,284.37 391.89,281.08 L 387.79 275.10 L 385.58 277.80 C384.36,279.28 378.92,286.35 373.49,293.50 C368.05,300.65 361.53,309.20 358.99,312.50 C344.82,330.93 338.00,340.02 338.00,340.48 ZM 252.34 364.50 C250.88,372.20 249.37,378.87 248.98,379.32 C248.35,380.04 240.00,368.04 240.00,366.41 C240.00,366.06 237.79,362.12 235.09,357.64 C232.40,353.16 229.10,347.48 227.77,345.00 C226.43,342.52 221.97,334.65 217.84,327.50 C213.72,320.35 208.21,310.57 205.60,305.77 L 200.86 297.04 L 203.72 298.27 C205.30,298.95 209.72,302.05 213.54,305.16 C217.37,308.27 227.25,316.21 235.50,322.79 C243.75,329.37 251.80,336.14 253.39,337.83 C254.11,338.60 254.67,339.19 255.07,339.87 C256.53,342.38 255.82,346.14 252.42,364.06 ZM 441.69 285.37 C441.34,286.27 440.71,287.00 440.28,286.99 C439.85,286.99 436.12,284.81 432.00,282.14 C421.08,275.07 411.02,268.68 406.88,266.18 C403.89,264.38 403.17,263.28 402.71,259.84 C402.23,256.29 402.57,255.17 405.06,252.09 C410.83,244.95 414.62,240.09 421.00,231.63 C425.73,225.36 428.04,223.08 429.47,223.26 C429.81,223.30 430.10,223.32 430.35,223.42 C431.82,223.98 432.32,227.07 436.48,251.00 C438.44,262.27 440.55,274.25 441.18,277.62 C441.80,280.98 442.03,284.47 441.69,285.37 ZM 423.57 213.11 C424.19,214.11 423.39,214.10 417.00,212.97 C414.52,212.54 403.73,210.76 393.01,209.03 L 373.52 205.87 L 370.61 202.34 C368.18,199.40 367.23,198.90 364.88,199.37 C362.42,199.87 361.51,199.28 357.78,194.82 C355.43,192.01 350.78,186.51 347.46,182.60 C333.58,166.29 327.89,159.00 329.01,159.00 C330.13,159.00 347.11,168.47 386.00,190.80 C415.12,207.52 423.01,212.21 423.57,213.11 ZM 351.42 250.93 C341.48,255.37 332.99,259.00 332.55,259.00 C332.12,259.00 331.95,254.71 332.18,249.46 L 332.60 239.91 L 346.69 225.82 C360.61,211.90 360.82,211.74 364.37,212.41 C367.54,213.00 368.45,213.93 372.11,220.29 C374.40,224.26 377.56,229.50 379.15,231.95 C382.48,237.08 382.29,237.43 374.50,240.74 C371.75,241.91 361.36,246.49 351.42,250.93 ZM 0.00 349.00 C0.00,581.00 0.34,698.00 1.00,698.00 C1.66,698.00 2.00,581.00 2.00,349.00 C2.00,117.00 1.66,0.00 1.00,0.00 C0.34,0.00 0.00,117.00 0.00,349.00 ZM 141.71 550.37 C142.10,550.76 145.36,550.95 148.96,550.79 L 155.50 550.50 L 155.76 511.75 L 156.02 473.00 L 150.09 473.00 C146.83,473.00 143.45,472.73 142.58,472.39 C141.16,471.85 141.00,475.63 141.00,510.73 C141.00,532.14 141.32,549.99 141.71,550.37 ZM 336.33 232.59 C323.86,244.92 313.34,255.00 312.95,255.00 C311.85,255.00 311.03,251.01 311.01,245.58 C311.01,242.73 310.40,239.99 309.57,239.08 C308.31,237.69 308.40,237.49 310.32,237.39 C311.52,237.32 314.08,236.69 316.00,235.99 C317.92,235.28 320.06,234.55 320.75,234.38 C321.68,234.14 322.00,230.30 322.00,219.40 L 322.00 204.74 L 336.25 205.41 C355.10,206.30 359.00,206.86 359.00,208.71 C359.00,209.52 348.80,220.27 336.33,232.59 ZM 359.51 202.97 C359.00,204.56 358.07,204.97 355.18,204.87 C351.77,204.75 322.81,202.31 322.25,202.10 C322.11,202.04 322.00,192.58 322.00,181.06 C322.00,167.33 322.37,159.89 323.06,159.46 C324.15,158.79 331.45,166.36 340.50,177.54 C343.25,180.93 348.80,187.59 352.83,192.32 C358.46,198.94 360.01,201.40 359.51,202.97 ZM 405.00 227.00 C394.83,231.51 386.01,235.41 385.41,235.65 C383.97,236.23 383.40,235.41 376.15,222.38 C369.37,210.20 369.04,207.60 374.37,208.45 C376.09,208.73 388.08,210.59 401.00,212.59 C413.92,214.60 424.70,216.41 424.93,216.63 C425.88,217.51 422.79,219.11 405.00,227.00 ZM 272.42 374.04 C263.30,378.42 255.75,382.00 255.64,382.00 C255.52,382.00 254.73,381.31 253.89,380.46 C252.66,379.23 252.50,377.76 253.11,373.21 C254.56,362.38 258.39,343.00 259.08,343.00 C259.46,343.00 262.63,345.24 266.13,347.98 C269.63,350.72 272.88,352.97 273.33,352.98 C274.21,353.00 289.00,364.98 289.00,365.67 C289.00,365.89 281.54,369.66 272.42,374.04 ZM 588.98 663.97 L 591.41 669.14 L 593.55 664.32 C596.17,658.41 601.93,652.68 608.29,649.64 L 613.08 647.36 L 608.12 644.66 C601.78,641.21 596.73,636.15 593.99,630.48 C592.80,628.02 591.52,626.00 591.16,626.00 C590.80,626.01 589.66,628.05 588.64,630.54 C586.31,636.21 580.15,642.33 574.40,644.69 C571.99,645.69 570.01,646.80 570.00,647.17 C570.00,647.54 571.56,648.36 573.47,648.99 C578.58,650.68 586.21,658.03 588.98,663.97 ZM 402.65 251.64 C398.68,256.30 395.72,256.11 392.48,250.97 C387.87,243.67 385.71,238.89 386.62,238.03 C387.84,236.86 423.47,221.00 424.86,221.00 C426.73,221.00 426.28,221.79 419.75,229.98 C416.31,234.29 411.70,240.17 409.50,243.05 C407.30,245.93 404.22,249.80 402.65,251.64 ZM 389.35 269.40 C388.33,270.79 387.22,271.95 386.88,271.97 C386.54,271.99 382.94,266.50 378.88,259.79 C374.82,253.07 371.14,247.00 370.70,246.30 C370.14,245.39 371.58,244.28 375.66,242.47 C378.82,241.08 382.07,240.06 382.88,240.22 C383.69,240.37 386.02,243.58 388.06,247.35 C391.39,253.50 391.74,254.85 391.49,260.53 C391.30,264.74 390.59,267.70 389.35,269.40 ZM 407.02 538.99 C403.29,540.89 397.29,541.50 394.00,540.29 C391.14,539.25 388.00,535.64 388.00,533.41 C388.00,526.89 391.70,525.00 404.45,525.00 L 414.00 525.00 L 414.00 528.05 C414.00,532.67 411.39,536.76 407.02,538.99 ZM 269.72 296.72 C268.03,296.85 266.39,297.35 266.08,297.84 C265.76,298.33 264.60,297.64 263.50,296.29 C262.40,294.94 260.86,293.16 260.09,292.33 C259.25,291.43 259.06,290.55 259.63,290.16 C260.15,289.80 261.51,287.99 262.66,286.14 C263.86,284.20 265.02,283.23 265.40,283.84 C265.77,284.43 266.65,284.69 267.37,284.41 C268.09,284.13 269.26,284.60 269.96,285.45 C270.67,286.30 271.92,287.00 272.74,287.00 C273.97,287.00 274.01,287.28 272.99,288.51 C272.27,289.38 271.96,291.38 272.27,293.26 C272.76,296.29 272.59,296.51 269.72,296.72 ZM 305.83 202.84 C303.22,202.93 300.99,203.53 300.77,204.20 C300.45,205.14 300.20,205.14 299.62,204.20 C299.22,203.54 297.33,203.00 295.44,203.00 C293.55,203.00 292.00,202.51 292.00,201.91 C292.00,201.19 293.39,201.06 296.12,201.52 C299.12,202.03 300.49,201.85 301.12,200.86 C301.77,199.85 302.20,199.80 302.76,200.67 C303.18,201.31 305.09,202.03 307.01,202.26 C310.04,202.62 309.89,202.70 305.83,202.84 ZM 292.63 227.49 C293.47,229.27 293.25,229.81 291.32,230.72 C289.25,231.70 289.00,231.57 289.00,229.49 C289.00,228.21 288.44,226.98 287.75,226.75 C287.06,226.52 287.65,226.11 289.06,225.84 C290.98,225.47 291.87,225.88 292.63,227.49 Z" fill="rgb(13,33,83)"/>
<path d="M 381.00 441.41 C376.33,439.52 371.08,437.30 369.35,436.49 C367.62,435.67 365.91,435.00 365.55,435.00 C365.20,435.00 358.74,432.37 351.21,429.17 C343.67,425.96 332.55,421.29 326.50,418.79 C323.87,417.70 319.83,416.02 315.24,414.11 C318.38,415.10 319.00,415.11 318.99,414.25 C318.99,413.93 317.03,412.90 312.42,410.84 C324.15,415.72 338.45,421.53 342.81,423.12 C345.73,424.19 350.91,426.35 354.31,427.93 C361.98,431.48 378.17,437.96 379.45,437.98 C380.05,437.99 380.05,437.68 379.45,437.13 C378.93,436.65 366.35,426.61 351.50,414.82 C336.65,403.04 317.30,387.68 308.50,380.70 C299.70,373.71 291.83,368.00 291.00,368.00 C289.66,367.99 280.54,372.26 271.94,376.62 C280.49,372.26 289.52,367.99 290.75,368.00 C291.44,368.00 292.00,367.40 292.00,366.67 C292.00,366.43 292.45,365.64 293.23,364.46 C293.08,364.72 293.00,364.90 293.00,364.97 C293.00,365.90 294.00,365.49 308.00,358.78 C325.05,350.61 326.76,350.01 331.24,350.62 C335.80,351.24 338.40,349.59 339.15,345.61 C339.34,344.57 341.52,342.63 344.00,341.31 C349.59,338.32 395.77,316.03 402.26,313.19 C404.88,312.04 407.29,310.40 407.62,309.54 C408.16,308.14 417.40,303.30 432.62,296.45 C436.46,294.72 437.86,293.50 438.23,291.58 L 438.24 291.52 C438.30,291.22 438.35,290.96 438.35,290.70 C438.33,288.65 435.11,286.64 406.92,268.81 C403.08,266.38 401.92,266.08 399.68,266.93 C398.22,267.49 396.40,267.71 395.66,267.42 C394.89,267.13 392.90,268.48 391.13,270.50 C389.40,272.48 387.57,273.85 387.07,273.55 C386.58,273.24 384.45,275.36 382.34,278.25 C380.23,281.14 377.95,284.17 377.26,285.00 C376.58,285.83 373.66,289.71 370.76,293.64 C358.42,310.38 336.12,339.00 335.42,339.00 C335.28,339.00 334.45,338.73 333.58,338.39 C332.18,337.85 332.00,333.47 332.00,299.33 L 332.00 260.87 L 329.75 261.55 C326.60,262.50 303.78,272.80 299.17,275.30 C300.96,274.20 304.82,272.41 311.25,269.49 L 322.00 264.60 L 322.00 258.99 C322.00,255.91 321.41,252.58 320.69,251.59 C319.46,249.91 319.20,249.96 316.15,252.53 C315.50,253.08 314.85,253.55 314.27,253.91 C317.51,250.99 326.29,242.52 336.33,232.59 C348.80,220.27 359.00,209.52 359.00,208.71 C359.00,206.86 355.10,206.30 336.25,205.41 L 323.81 204.83 C321.75,203.19 321.83,203.01 323.50,202.90 C325.24,202.79 325.27,202.71 323.72,202.30 C323.66,202.29 323.61,202.28 323.56,202.26 C329.34,202.86 352.18,204.77 355.18,204.87 C358.07,204.97 359.00,204.56 359.51,202.97 C360.01,201.40 358.46,198.94 352.83,192.32 C348.80,187.59 343.25,180.93 340.50,177.54 C331.45,166.36 324.15,158.79 323.06,159.46 C322.46,159.84 322.10,165.54 322.02,176.10 C322.02,175.03 322.03,173.99 322.03,173.00 C322.10,154.56 322.12,149.02 321.51,147.50 C325.45,147.50 326.82,148.82 328.36,154.12 C328.78,155.55 347.96,166.94 385.00,187.76 C391.33,191.32 401.27,197.06 407.09,200.52 C423.66,210.34 424.92,210.88 430.13,210.29 C434.13,209.84 434.94,210.07 436.36,212.11 C438.55,215.23 438.43,218.19 435.98,221.30 C434.05,223.75 434.02,224.21 435.37,231.19 C436.15,235.21 437.30,241.65 437.93,245.50 C444.05,282.77 444.41,284.40 446.89,285.63 C451.52,287.94 452.39,292.62 448.81,295.96 C446.35,298.25 443.85,298.55 441.14,296.86 C439.62,295.91 436.83,296.91 424.65,302.79 C417.95,306.03 412.26,308.91 410.54,309.94 C410.81,309.42 410.41,309.00 409.62,309.00 C408.79,309.00 407.84,309.45 407.50,310.00 C407.16,310.55 407.56,311.00 408.38,311.00 C408.96,311.00 409.59,310.78 410.04,310.46 C410.90,312.66 424.25,335.51 425.62,337.08 C426.38,337.95 427.00,339.15 427.00,339.76 C427.00,340.66 397.33,378.30 381.59,397.36 L 377.68 402.09 L 381.09 405.00 C382.97,406.60 389.08,411.64 394.69,416.20 C400.29,420.77 404.90,424.97 404.94,425.53 C404.99,426.41 394.27,440.05 390.67,443.68 C389.77,444.58 387.51,444.05 381.00,441.41 ZM 389.30 550.62 C383.30,549.11 377.66,545.18 375.50,541.00 C373.34,536.82 373.58,528.21 375.96,524.30 C379.61,518.32 389.44,515.03 403.75,515.01 C412.90,515.00 413.00,514.97 413.00,512.55 C413.00,508.57 410.95,505.22 407.69,503.87 C402.98,501.92 392.02,502.46 386.48,504.91 C383.88,506.06 381.44,507.00 381.06,507.00 C380.68,507.00 379.32,505.13 378.03,502.84 L 375.69 498.67 L 377.88 496.89 C382.65,493.04 390.61,491.00 400.92,491.00 C411.79,491.00 416.26,492.30 420.88,496.78 C427.37,503.08 427.41,503.26 427.84,528.17 L 428.24 551.00 L 421.62 551.00 C415.23,551.00 415.00,550.91 415.00,548.50 C415.00,547.12 414.82,546.00 414.59,546.00 C414.37,546.00 412.01,547.11 409.34,548.47 C403.31,551.54 396.07,552.32 389.30,550.62 ZM 302.67 550.33 C302.30,549.97 302.00,531.29 302.00,508.83 L 302.00 468.00 L 316.00 468.00 L 316.00 496.86 L 322.12 493.70 C327.56,490.89 329.10,490.56 335.87,490.70 C344.69,490.88 349.35,492.56 353.85,497.15 C359.05,502.48 360.00,507.64 360.00,530.73 L 360.00 551.09 L 353.25 550.80 L 346.50 550.50 L 346.00 531.00 C345.34,505.37 344.20,503.00 332.52,503.00 C325.89,503.00 322.41,504.58 319.00,509.15 C316.57,512.41 316.49,513.03 316.16,531.75 L 315.82 551.00 L 309.57 551.00 C306.14,551.00 303.03,550.70 302.67,550.33 ZM 445.67 550.33 C445.30,549.97 445.00,536.47 445.00,520.33 L 445.00 491.00 L 451.50 491.00 C457.24,491.00 458.00,491.22 458.00,492.92 C458.00,493.97 458.27,495.54 458.60,496.41 C459.13,497.78 459.55,497.71 461.85,495.90 C466.38,492.34 471.09,490.95 478.94,490.85 C487.63,490.74 492.09,492.25 496.68,496.83 C502.14,502.30 503.00,506.83 503.00,530.22 L 503.00 551.09 L 496.25 550.80 L 489.50 550.50 L 489.00 530.50 C488.48,509.66 488.05,507.55 483.77,504.55 C480.44,502.22 470.34,502.49 466.19,505.02 C460.15,508.71 459.05,513.04 459.02,533.25 L 459.00 551.00 L 452.67 551.00 C449.18,551.00 446.03,550.70 445.67,550.33 ZM 338.00 340.48 C338.00,340.02 344.82,330.93 358.99,312.50 C361.53,309.20 368.05,300.65 373.49,293.50 C378.92,286.35 384.36,279.28 385.58,277.80 L 387.79 275.10 L 391.89 281.08 C394.15,284.37 396.00,287.35 396.00,287.70 C396.00,288.23 401.36,297.19 406.78,305.72 C408.16,307.89 407.91,308.08 394.35,314.58 C386.73,318.23 374.20,324.26 366.50,327.98 C338.19,341.65 338.00,341.74 338.00,340.48 ZM 441.69 285.37 C442.03,284.47 441.80,280.98 441.18,277.62 C440.55,274.25 438.44,262.27 436.48,251.00 C432.32,227.07 431.82,223.98 430.35,223.42 C430.10,223.32 429.81,223.30 429.47,223.26 C428.04,223.08 425.73,225.36 421.00,231.63 C414.62,240.09 410.83,244.95 405.06,252.09 C402.57,255.17 402.23,256.29 402.71,259.84 C403.17,263.28 403.89,264.38 406.88,266.18 C411.02,268.68 421.08,275.07 432.00,282.14 C436.12,284.81 439.85,286.99 440.28,286.99 C440.71,287.00 441.34,286.27 441.69,285.37 ZM 423.57 213.11 C423.01,212.21 415.12,207.52 386.00,190.80 C347.11,168.47 330.13,159.00 329.01,159.00 C327.89,159.00 333.58,166.29 347.46,182.60 C350.78,186.51 355.43,192.01 357.78,194.82 C361.51,199.28 362.42,199.87 364.88,199.37 C367.23,198.90 368.18,199.40 370.61,202.34 L 373.52 205.87 L 393.01 209.03 C403.73,210.76 414.52,212.54 417.00,212.97 C423.39,214.10 424.19,214.11 423.57,213.11 ZM 351.42 250.93 C361.36,246.49 371.75,241.91 374.50,240.74 C382.29,237.43 382.48,237.08 379.15,231.95 C377.56,229.50 374.40,224.26 372.11,220.29 C368.45,213.93 367.54,213.00 364.37,212.41 C360.82,211.74 360.61,211.90 346.69,225.82 L 332.60 239.91 L 332.18 249.46 C331.95,254.71 332.12,259.00 332.55,259.00 C332.99,259.00 341.48,255.37 351.42,250.93 ZM 405.00 227.00 C422.79,219.11 425.88,217.51 424.93,216.63 C424.70,216.41 413.92,214.60 401.00,212.59 C388.08,210.59 376.09,208.73 374.37,208.45 C369.04,207.60 369.37,210.20 376.15,222.38 C383.40,235.41 383.97,236.23 385.41,235.65 C386.01,235.41 394.83,231.51 405.00,227.00 ZM 402.65 251.64 C404.22,249.80 407.30,245.93 409.50,243.05 C411.70,240.17 416.31,234.29 419.75,229.98 C426.28,221.79 426.73,221.00 424.86,221.00 C423.47,221.00 387.84,236.86 386.62,238.03 C385.71,238.89 387.87,243.67 392.48,250.97 C395.72,256.11 398.68,256.30 402.65,251.64 ZM 389.35 269.40 C390.59,267.70 391.30,264.74 391.49,260.53 C391.74,254.85 391.39,253.50 388.06,247.35 C386.02,243.58 383.69,240.37 382.88,240.22 C382.07,240.06 378.82,241.08 375.66,242.47 C371.58,244.28 370.14,245.39 370.70,246.30 C371.14,247.00 374.82,253.07 378.88,259.79 C382.94,266.50 386.54,271.99 386.88,271.97 C387.22,271.95 388.33,270.79 389.35,269.40 ZM 407.02 538.99 C411.39,536.76 414.00,532.67 414.00,528.05 L 414.00 525.00 L 404.45 525.00 C391.70,525.00 388.00,526.89 388.00,533.41 C388.00,535.64 391.14,539.25 394.00,540.29 C397.29,541.50 403.29,540.89 407.02,538.99 ZM 265.47 391.21 C268.07,392.29 271.37,393.64 275.59,395.35 C283.14,398.41 291.52,401.90 295.79,403.75 C290.31,401.46 283.71,398.73 275.86,395.50 C271.51,393.72 268.12,392.32 265.47,391.21 ZM 311.01 245.19 C310.68,242.26 310.05,239.67 309.46,239.00 C309.07,238.55 308.83,238.23 308.76,238.00 C308.85,238.24 309.13,238.59 309.57,239.08 C310.36,239.95 310.95,242.49 311.01,245.19 ZM 243.43 204.55 C243.78,203.94 244.31,203.45 244.94,203.22 C246.01,202.82 246.80,202.05 246.69,201.50 C246.64,201.22 247.12,200.89 247.93,200.60 C247.23,200.86 246.86,201.15 247.00,201.39 C247.27,201.87 246.49,202.65 245.25,203.10 C244.44,203.40 243.81,203.91 243.43,204.55 ZM 317.41 148.61 C316.31,149.81 315.34,151.71 314.63,154.12 C315.47,151.27 316.25,149.57 317.41,148.61 ZM 322.07 195.60 C321.98,192.50 321.98,187.93 322.00,181.19 C322.00,186.76 322.03,191.84 322.07,195.60 ZM 256.00 385.66 C256.00,386.65 256.32,387.21 260.51,389.10 C256.90,387.49 256.18,386.91 256.04,386.21 C256.00,386.04 256.00,385.86 256.00,385.66 ZM 303.28 351.24 C307.17,346.33 310.33,342.14 310.83,341.24 C310.39,342.08 307.17,346.35 303.28,351.24 ZM 272.74 396.38 C268.18,394.52 264.80,393.19 262.26,392.26 C264.84,393.19 268.23,394.52 272.74,396.38 ZM 312.41 254.66 C312.34,254.65 312.29,254.62 312.25,254.59 C312.16,254.49 312.05,254.19 311.95,253.73 C312.09,254.13 312.24,254.44 312.41,254.66 ZM 257.03 384.76 C256.37,385.20 256.00,385.51 256.00,385.66 L 256.00 385.63 C256.00,385.50 256.37,385.20 257.03,384.76 Z" fill="rgb(64,155,226)"/>
<path d="M 243.43 204.55 C243.81,203.91 244.44,203.40 245.25,203.10 C246.49,202.65 247.27,201.87 247.00,201.39 C246.86,201.15 247.23,200.86 247.93,200.60 C248.71,200.32 249.79,200.06 251.00,199.90 L 255.50 199.30 L 251.36 199.15 C249.49,199.08 248.13,198.74 247.25,198.10 C248.47,198.80 250.76,199.00 254.86,199.00 C259.06,199.00 270.78,199.47 280.90,200.05 C291.31,200.64 299.68,200.72 300.17,200.23 C300.65,199.75 301.89,197.14 302.94,194.43 C312.89,168.54 317.87,157.47 319.03,158.63 C319.81,159.41 311.80,181.31 305.44,195.78 C303.52,200.17 303.61,200.79 306.25,201.29 C307.49,201.53 311.31,201.79 314.75,201.86 L 321.00 202.00 L 321.01 184.25 C321.01,174.49 321.30,162.07 321.66,156.66 L 321.98 151.88 C322.10,155.59 322.07,162.00 322.03,172.99 L 322.03 173.00 C322.03,173.99 322.02,175.02 322.02,176.10 L 322.02 176.10 C322.01,177.65 322.00,179.30 322.00,181.06 L 322.00 181.19 C321.98,187.93 321.98,192.50 322.07,195.60 C322.12,199.57 322.18,202.07 322.25,202.10 C322.32,202.12 322.79,202.18 323.56,202.26 C323.61,202.28 323.66,202.29 323.72,202.30 C325.27,202.71 325.24,202.79 323.50,202.90 C321.83,203.01 321.75,203.19 323.00,204.00 L 322.00 204.74 L 322.00 219.40 C322.00,230.30 321.68,234.14 320.75,234.38 C320.06,234.55 317.92,235.28 316.00,235.99 C314.08,236.69 311.52,237.32 310.32,237.39 C309.08,237.45 308.60,237.56 308.76,238.00 C308.83,238.23 309.07,238.55 309.46,239.00 C309.60,239.16 309.74,239.42 309.88,239.76 L 302.02 235.62 C297.20,233.08 292.81,231.00 292.25,231.00 C291.70,231.00 288.19,238.76 284.44,248.25 C281.68,255.26 278.37,263.65 275.99,269.65 L 283.11 281.60 C286.85,279.94 290.95,278.04 294.33,276.38 C296.99,275.07 299.69,274.00 300.33,274.01 C300.79,274.01 303.49,272.95 307.04,271.41 C303.07,273.24 300.53,274.47 299.17,275.30 C298.88,275.46 298.66,275.58 298.53,275.68 C296.79,276.84 297.28,277.00 302.72,277.00 L 302.84 277.00 C305.90,277.00 307.93,277.00 309.29,277.96 C312.00,279.88 312.00,285.62 312.00,302.83 L 312.00 303.16 C312.00,316.60 311.62,325.12 311.00,325.50 C310.33,325.92 310.33,326.75 311.01,328.01 C311.16,328.30 311.29,328.69 311.40,329.16 L 311.40 329.16 L 307.66 322.87 L 297.45 314.37 C290.27,308.39 281.84,301.53 278.70,299.13 C274.28,295.74 273.00,294.16 273.00,292.08 C273.00,289.69 274.00,288.96 284.57,284.07 L 283.11 281.60 C277.60,284.05 272.84,286.00 272.18,286.00 C271.60,286.00 270.90,285.64 270.63,285.21 C270.36,284.78 271.83,280.16 273.89,274.96 C274.43,273.60 275.15,271.77 275.99,269.65 L 238.10 205.97 C239.70,204.43 240.60,205.10 241.68,206.58 C242.92,208.27 243.00,208.24 243.00,206.16 C243.00,205.59 243.16,205.03 243.43,204.55 ZM 303.50 233.52 C306.80,235.43 309.95,236.87 310.50,236.70 C311.05,236.54 313.64,235.82 316.25,235.09 L 321.00 233.76 L 321.00 205.28 L 315.75 204.65 C312.86,204.30 308.65,204.01 306.38,204.01 L 302.26 204.00 L 297.59 215.21 L 292.92 226.43 L 295.21 228.23 C296.47,229.23 300.20,231.60 303.50,233.52 ZM 268.21 213.35 C279.37,219.74 289.03,224.97 289.68,224.98 C290.33,224.99 291.17,223.99 291.54,222.75 C291.92,221.51 292.83,219.15 293.57,217.50 C294.30,215.85 295.81,212.17 296.91,209.32 L 298.92 204.13 L 293.71 203.60 C283.94,202.59 248.88,200.79 248.40,201.27 C248.13,201.53 257.05,206.97 268.21,213.35 ZM 269.72 296.72 C268.03,296.85 266.39,297.35 266.08,297.84 C265.76,298.33 264.60,297.64 263.50,296.29 C262.40,294.94 260.86,293.16 260.09,292.33 C259.25,291.43 259.06,290.55 259.63,290.16 C260.15,289.80 261.51,287.99 262.66,286.14 C263.86,284.20 265.02,283.23 265.40,283.84 C265.77,284.43 266.65,284.69 267.37,284.41 C268.09,284.13 269.26,284.60 269.96,285.45 C270.67,286.30 271.92,287.00 272.74,287.00 C273.97,287.00 274.01,287.28 272.99,288.51 C272.27,289.38 271.96,291.38 272.27,293.26 C272.76,296.29 272.59,296.51 269.72,296.72 ZM 305.83 202.84 C309.89,202.70 310.04,202.62 307.01,202.26 C305.09,202.03 303.18,201.31 302.76,200.67 C302.20,199.80 301.77,199.85 301.12,200.86 C300.49,201.85 299.12,202.03 296.12,201.52 C293.39,201.06 292.00,201.19 292.00,201.91 C292.00,202.51 293.55,203.00 295.44,203.00 C297.33,203.00 299.22,203.54 299.62,204.20 C300.20,205.14 300.45,205.14 300.77,204.20 C300.99,203.53 303.22,202.93 305.83,202.84 ZM 292.63 227.49 C291.87,225.88 290.98,225.47 289.06,225.84 C287.65,226.11 287.06,226.52 287.75,226.75 C288.44,226.98 289.00,228.21 289.00,229.49 C289.00,231.57 289.25,231.70 291.32,230.72 C293.25,229.81 293.47,229.27 292.63,227.49 ZM 410.00 310.31 C410.00,310.34 410.01,310.39 410.04,310.46 C409.59,310.78 408.96,311.00 408.38,311.00 C407.56,311.00 407.16,310.55 407.50,310.00 C407.84,309.45 408.79,309.00 409.62,309.00 C410.41,309.00 410.81,309.42 410.54,309.94 C410.19,310.14 410.00,310.27 410.00,310.31 ZM 272.46 396.27 C268.25,394.55 265.06,393.29 262.61,392.39 C265.09,393.29 268.29,394.55 272.46,396.27 ZM 317.41 148.61 C317.44,148.59 317.46,148.56 317.49,148.54 C317.03,149.03 316.59,149.63 316.18,150.34 C316.57,149.66 316.98,149.08 317.41,148.61 ZM 311.91 253.62 C311.92,253.66 311.93,253.69 311.95,253.73 C312.05,254.18 312.15,254.47 312.25,254.58 C312.24,254.58 312.24,254.57 312.24,254.57 C312.13,254.47 312.02,254.13 311.91,253.62 Z" fill="rgb(82,46,146)"/>
<path d="M 0.00 349.00 C0.00,117.00 0.34,0.00 1.00,0.00 C1.66,0.00 2.00,117.00 2.00,349.00 C2.00,581.00 1.66,698.00 1.00,698.00 C0.34,698.00 0.00,581.00 0.00,349.00 ZM 588.98 663.97 C586.21,658.03 578.58,650.68 573.47,648.99 C571.56,648.36 570.00,647.54 570.00,647.17 C570.01,646.80 571.99,645.69 574.40,644.69 C580.15,642.33 586.31,636.21 588.64,630.54 C589.66,628.05 590.80,626.01 591.16,626.00 C591.52,626.00 592.80,628.02 593.99,630.48 C596.73,636.15 601.78,641.21 608.12,644.66 L 613.08 647.36 L 608.29 649.64 C601.93,652.68 596.17,658.41 593.55,664.32 L 591.41 669.14 L 588.98 663.97 ZM 256.00 551.38 C251.33,550.51 240.92,546.60 239.87,545.34 C238.63,543.85 239.50,539.29 241.53,536.58 C243.08,534.52 243.55,534.59 253.50,538.39 C263.08,542.04 276.00,539.26 276.00,533.54 C276.00,530.01 272.75,528.26 262.94,526.52 C249.81,524.20 247.50,523.29 243.60,518.98 C240.38,515.41 240.00,514.41 240.00,509.43 C240.00,506.37 240.50,502.89 241.12,501.68 C242.91,498.20 248.13,494.15 252.92,492.51 C261.23,489.68 281.93,491.21 286.48,494.99 C288.07,496.30 287.09,500.00 284.13,503.86 C282.43,506.09 282.16,506.14 279.41,504.73 C272.98,501.43 257.10,501.72 254.85,505.18 C253.28,507.58 254.39,511.43 257.00,512.67 C258.38,513.33 264.22,514.83 269.99,516.00 C275.76,517.18 282.00,519.07 283.86,520.22 C292.00,525.26 292.05,540.26 283.94,546.04 C282.40,547.14 279.21,548.72 276.85,549.55 C272.38,551.13 260.30,552.19 256.00,551.38 ZM 141.71 550.37 C141.32,549.99 141.00,532.14 141.00,510.73 C141.00,475.63 141.16,471.85 142.58,472.39 C143.45,472.73 146.83,473.00 150.09,473.00 L 156.02 473.00 L 155.76 511.75 L 155.50 550.50 L 148.96 550.79 C145.36,550.95 142.10,550.76 141.71,550.37 ZM 175.71 550.38 C175.32,549.99 175.00,531.27 175.00,508.79 L 175.00 467.91 L 181.75 468.20 L 188.50 468.50 L 188.77 491.75 C189.00,512.11 189.23,515.00 190.61,515.00 C191.47,515.00 197.69,509.60 204.42,503.00 L 216.66 491.00 L 224.83 491.00 C229.32,491.00 233.00,491.35 233.00,491.78 C233.00,492.20 227.82,497.67 221.50,503.91 C215.18,510.16 210.01,515.77 210.02,516.39 C210.03,517.00 212.53,520.57 215.57,524.32 C227.03,538.43 234.95,549.27 234.43,550.12 C234.13,550.60 230.59,551.00 226.56,551.00 C220.53,551.00 219.00,550.67 217.87,549.11 C211.88,540.84 200.68,527.09 199.60,526.68 C198.86,526.39 196.20,528.26 193.68,530.83 C189.14,535.45 189.08,535.58 188.79,543.00 L 188.50 550.50 L 182.46 550.79 C179.14,550.95 176.10,550.77 175.71,550.38 ZM 315.00 414.03 C313.62,413.59 304.62,409.87 295.00,405.77 C261.26,391.37 256.07,389.48 253.95,390.80 C251.32,392.44 248.88,392.30 246.11,390.36 C244.08,388.94 243.84,388.13 244.29,384.16 C244.77,379.85 244.28,378.66 235.73,363.54 C230.75,354.72 224.49,343.77 221.83,339.22 C219.18,334.66 217.00,330.74 217.00,330.50 C217.00,330.27 214.59,326.10 211.64,321.24 C205.76,311.54 196.00,293.70 196.00,292.66 C196.00,292.30 209.92,292.00 226.94,292.00 L 257.89 292.00 L 260.67 294.39 C262.91,296.32 263.46,297.63 263.48,301.14 C263.49,303.54 263.21,305.73 262.86,306.00 C262.50,306.27 261.01,313.25 259.55,321.50 C256.31,339.68 256.39,339.41 254.76,338.02 C254.07,337.43 246.07,331.07 237.00,323.89 C227.93,316.71 215.90,307.05 210.28,302.42 C199.95,293.91 199.00,293.28 199.00,294.89 C199.00,296.04 207.86,311.99 209.66,314.09 C210.99,315.64 222.86,335.91 227.76,345.00 C229.10,347.48 232.40,353.16 235.09,357.64 C237.79,362.12 240.00,366.06 240.00,366.41 C240.00,368.04 248.35,380.04 248.98,379.32 C249.70,378.49 254.46,354.48 255.63,345.75 C256.29,340.85 258.00,339.15 258.00,343.40 C258.00,344.71 257.10,350.45 256.00,356.15 C252.44,374.58 252.10,378.78 254.03,380.52 C255.57,381.92 257.22,381.34 272.36,374.07 C281.51,369.67 289.00,365.86 289.00,365.59 C289.00,365.20 282.06,359.58 259.09,341.34 C258.67,341.00 259.32,337.13 263.95,312.60 C266.01,301.69 266.99,298.42 268.54,297.43 C270.31,296.29 272.49,297.77 291.00,312.70 L 311.50 329.23 L 311.65 334.37 C311.73,337.19 311.39,340.26 310.89,341.20 C310.39,342.13 305.94,347.94 300.99,354.12 C296.05,360.29 292.00,365.94 292.00,366.67 C292.00,367.40 291.44,368.00 290.75,368.00 C288.34,367.99 256.00,384.40 256.00,385.63 C256.00,387.34 255.97,387.33 275.86,395.50 C307.83,408.64 318.98,413.49 318.99,414.25 C319.00,415.14 318.35,415.10 315.00,414.03 ZM 297.45 314.37 C290.27,308.39 281.84,301.53 278.70,299.13 C274.28,295.74 273.00,294.16 273.00,292.08 C273.00,289.63 274.05,288.92 285.36,283.70 C295.66,278.95 298.63,278.00 303.24,278.00 C306.70,278.00 309.18,278.51 309.90,279.38 C310.70,280.34 310.96,287.43 310.77,302.99 L 310.50 325.23 L 297.45 314.37 ZM 222.65 289.25 L 195.79 288.97 L 196.45 286.34 C196.81,284.90 206.03,266.12 216.93,244.61 C233.39,212.12 237.07,205.56 238.62,205.85 C239.66,206.03 240.63,206.31 240.78,206.46 C240.94,206.61 243.33,214.78 246.08,224.62 C248.84,234.45 252.38,247.00 253.93,252.50 C255.49,258.00 257.32,264.64 258.01,267.25 C258.70,269.86 259.65,272.00 260.13,272.00 C261.51,272.00 261.14,266.65 259.44,261.88 C258.58,259.47 257.50,255.70 257.03,253.50 C256.57,251.30 253.70,240.95 250.66,230.50 C244.34,208.80 243.29,204.00 244.85,204.00 C245.45,204.00 250.11,206.39 255.21,209.32 C260.32,212.24 269.61,217.50 275.85,221.00 C282.10,224.51 287.44,227.99 287.73,228.75 C288.03,229.51 286.18,235.55 283.64,242.17 C281.09,248.79 279.23,254.57 279.50,255.00 C279.77,255.44 279.32,256.05 278.49,256.36 C277.67,256.68 276.98,257.51 276.96,258.22 C276.89,260.70 267.49,283.06 266.50,283.11 C265.95,283.13 264.87,280.87 264.11,278.08 C263.34,275.28 262.33,273.00 261.87,273.00 C260.98,273.00 261.54,281.44 262.54,283.06 C262.86,283.58 262.17,285.36 261.00,287.01 C259.09,289.68 258.37,289.98 254.18,289.77 C251.61,289.64 237.42,289.41 222.65,289.25 ZM 270.63 285.21 C270.36,284.78 271.83,280.16 273.89,274.96 C275.95,269.76 280.70,257.74 284.44,248.25 C288.19,238.76 291.70,231.00 292.25,231.00 C292.81,231.00 297.20,233.08 302.02,235.62 L 310.79 240.24 L 311.17 247.07 C311.39,250.82 311.86,254.20 312.24,254.57 C312.61,254.94 314.37,254.02 316.15,252.53 C319.20,249.96 319.46,249.91 320.69,251.59 C321.41,252.58 322.00,255.91 322.00,258.99 L 322.00 264.60 L 311.75 269.31 C306.11,271.90 300.97,274.01 300.33,274.01 C299.69,274.00 296.99,275.07 294.33,276.38 C285.98,280.49 273.29,286.00 272.18,286.00 C271.60,286.00 270.90,285.64 270.63,285.21 ZM 303.50 233.52 C300.20,231.60 296.47,229.23 295.21,228.23 L 292.92 226.43 L 297.59 215.21 L 302.26 204.00 L 306.38 204.01 C308.65,204.01 312.86,204.30 315.75,204.65 L 321.00 205.28 L 321.00 219.52 L 321.00 233.76 L 316.25 235.09 C313.64,235.82 311.05,236.54 310.50,236.70 C309.95,236.87 306.80,235.43 303.50,233.52 ZM 268.21 213.35 C257.05,206.97 248.13,201.53 248.40,201.27 C248.88,200.79 283.94,202.59 293.71,203.60 L 298.92 204.13 L 296.91 209.32 C295.81,212.17 294.30,215.85 293.57,217.50 C292.83,219.15 291.92,221.51 291.54,222.75 C291.17,223.99 290.33,224.99 289.68,224.98 C289.03,224.97 279.37,219.74 268.21,213.35 ZM 306.25 201.29 C303.61,200.79 303.52,200.17 305.44,195.78 C311.80,181.31 319.81,159.41 319.03,158.63 C317.87,157.47 312.89,168.54 302.94,194.43 C301.89,197.14 300.65,199.75 300.17,200.23 C299.68,200.72 291.31,200.64 280.90,200.05 C270.78,199.47 259.06,199.00 254.86,199.00 C247.58,199.00 246.00,198.36 246.00,195.45 C246.00,194.85 255.85,188.71 262.00,185.48 C265.02,183.88 268.62,181.83 270.00,180.92 C271.38,180.00 274.98,177.92 278.00,176.30 C295.30,166.98 314.22,155.53 314.63,154.12 C315.85,149.99 317.76,147.47 319.94,147.16 L 322.31 146.82 L 321.66 156.66 C321.30,162.07 321.01,174.49 321.01,184.25 L 321.00 202.00 L 314.75 201.86 C311.31,201.79 307.49,201.53 306.25,201.29 Z" fill="rgb(173,92,217)"/>
</g>
</svg>