<?xml version="1.0" encoding="UTF-8"?>
<svg id="Layer_1" data-name="Layer 1" xmlns="http://www.w3.org/2000/svg" xmlns:xlink="http://www.w3.org/1999/xlink" viewBox="0 0 586.96 582.8">
  <defs>
    <style>
      .cls-1, .cls-2, .cls-3, .cls-4, .cls-5 {
        fill: none;
        stroke-miterlimit: 10;
      }

      .cls-1, .cls-3 {
        stroke-width: 2px;
      }

      .cls-1, .cls-5 {
        stroke: #4d64ab;
      }

      .cls-6 {
        fill: #101a3d;
      }

      .cls-7 {
        fill: #703494;
      }

      .cls-8 {
        fill: #9359b6;
      }

      .cls-9 {
        fill: #3c8ad1;
      }

      .cls-2 {
        stroke: url(#linear-gradient);
      }

      .cls-2, .cls-5 {
        stroke-width: 2.5px;
      }

      .cls-3, .cls-4 {
        stroke: #703494;
      }

      .cls-10 {
        fill: #4d64ab;
      }
    </style>
    <linearGradient id="linear-gradient" x1="159.05" y1="219.11" x2="363.61" y2="219.11" gradientUnits="userSpaceOnUse">
      <stop offset="0" stop-color="#703494"/>
      <stop offset="1" stop-color="#3c8ad1"/>
    </linearGradient>
  </defs>
  <rect class="cls-6" width="586.96" height="582.8"/>
  <g>
    <g>
      <polyline class="cls-2" points="363.11 373.82 218.66 311.27 160.47 209.81 208.78 115.77 293.15 64.32"/>
      <polygon class="cls-8" points="233.98 213.36 225.62 262.46 163.34 211.78 233.98 213.36"/>
      <polygon class="cls-8" points="233.79 210.72 161.36 209.12 207.64 116.55 233.79 210.72"/>
      <polygon class="cls-8" points="210.92 118.57 259.35 147.39 235.74 207.92 210.92 118.57"/>
      <polygon class="cls-8" points="213.44 117.01 270.34 119.23 260.32 144.9 213.44 117.01"/>
      <polygon class="cls-8" points="290.51 67.48 271.14 117.15 212.77 114.88 290.51 67.48"/>
      <polygon class="cls-8" points="291.83 71.32 291.83 117.96 273.91 117.26 291.83 71.32"/>
      <polygon class="cls-8" points="273.41 119.33 292.69 120.07 292.69 163.65 262.61 146.26 273.41 119.33"/>
      <polygon class="cls-8" points="292.69 167.22 293.12 183.25 237.96 209.45 261.64 148.75 292.69 167.22"/>
      <polygon class="cls-8" points="237.94 212.38 292.69 186.14 292.69 258.05 237.94 212.38"/>
      <polygon class="cls-8" points="236.44 214.55 292.69 261.48 292.69 277.44 261.64 292.06 227.97 264.36 236.44 214.55"/>
      <polygon class="cls-9" points="361.43 194.82 305.09 267.96 305.09 178.74 341.3 162.42 361.43 194.82"/>
      <polygon class="cls-9" points="309.52 266.52 362.91 197.2 383.74 230.71 309.52 266.52"/>
      <polygon class="cls-9" points="351.6 328.96 380.82 353.25 363.11 373.82 262.11 292.31 305.09 273.04 305.09 271.57 385.13 232.97 403.86 263.11 351.6 328.96"/>
      <path class="cls-7" d="M205.26,116.69l8.18.32-2.11-1.25,1.44-.87-.47-.02,79.8-48.67v51.78h-.26s0,2.09,0,2.09l2.37.09v-57.71l-88.94,54.24Z"/>
      <path class="cls-7" d="M295.79,61.18l-88.54,53.99.39,1.39.67-1.35,84.37-51.45v5.37l3.1-7.95ZM235.32,216.23l1.47-3.79.28-1.65-3.29-.07,1.54,5.51Z"/>
      <path class="cls-7" d="M206.23,115.79l1.38.82.05.03,3.26,1.94-.61-2.2,1.02-.62,79.18-48.28,1.33-.81v4.65l.85-2.19v98.09l1.78,1.06V61.99l-88.23,53.8Z"/>
      <polygon class="cls-1" points="293.15 64.32 408.99 133.88 338.84 122.36 293.15 119.06 293.15 64.32"/>
      <path class="cls-10" d="M410.82,130.71l-37.76,49-31.01-55.24-.05-.08-47.82-60.88-2.06,1.62,47.69,60.72,31.22,55.59.17.3.21.13-9.97,12.95,1.48,2.39,10.75-13.96,51.75,31.46-14.59-84ZM409.26,137.05l12.57,72.39-46.54-28.3,33.97-44.09ZM383.74,230.71l1.39,2.25,36.59-17.65-1.15-2.37-36.83,17.76ZM305.09,271.57v-3.61l-4.43,5.74,4.43-2.14Z"/>
      <g>
        <polygon class="cls-10" points="305.26 153.19 304.87 153.19 304.88 154.5 304.89 156.03 305.12 154.25 306.18 153.18 305.26 153.19"/>
        <polygon class="cls-10" points="410.55 135.09 305.05 180.19 305.02 177.46 307.65 176.13 307.65 176.21 409.52 132.67 410.55 135.09"/>
      </g>
      <polyline class="cls-5" points="293.15 166.4 304.88 154.5 305.12 154.25 306.18 153.18 307.84 151.49 337.77 121.12"/>
      <path class="cls-6" d="M264.99,199.38l40.03-19.18c.07-.03.15.02.15.09v94.2s-.44-.38-.48-.37l-43.26,18.5c-.1.04-.19-.08-.12-.16l21.04-25.88s.02-.04.02-.07v-58.1c0-4.13-3.16-7.58-7.27-7.95l-9-.8c-.1,0-1.19-.25-1.1-.29Z"/>
      <circle class="cls-9" cx="408.99" cy="133.88" r="7"/>
      <circle class="cls-9" cx="423.62" cy="212.08" r="7"/>
      <circle class="cls-9" cx="373.41" cy="181.83" r="7"/>
      <circle class="cls-9" cx="339.41" cy="123.38" r="7"/>
      <circle class="cls-7" cx="208.78" cy="115.36" r="7"/>
      <circle class="cls-7" cx="163.34" cy="210.72" r="7"/>
      <circle class="cls-6" cx="236.35" cy="212.08" r="7"/>
      <line class="cls-3" x1="293.15" y1="119.64" x2="293.15" y2="64.32"/>
      <circle class="cls-9" cx="293.15" cy="67" r="7"/>
      <path class="cls-7" d="M293.15,74c-3.86,0-7-3.13-7-7s3.13-7,7-7"/>
      <polyline class="cls-9" points="305.16 152.38 291.83 166.71 293.12 183.25 305.09 177.55"/>
      <path class="cls-6" d="M280.97,178.54l.02-18.86c0-3.83,3.13-6.94,6.98-6.94l17.62-.84-24.63,26.63Z"/>
      <line class="cls-4" x1="307.92" y1="272.34" x2="218.25" y2="311.44"/>
      <circle class="cls-6" cx="305.09" cy="270.11" r="7"/>
      <circle class="cls-7" cx="218.63" cy="311.44" r="7"/>
    </g>
    <g>
      <path class="cls-8" d="M86.23,421.23h17.69v99.74h-17.69v-99.74Z"/>
      <path class="cls-8" d="M127.72,413.23h17.2v67.29h.49l27.76-34.47h19.22l-25.68,30.5,28.31,44.41h-19.09l-19.28-32.52-11.71,13.48v19.03h-17.2v-107.73Z"/>
      <path class="cls-8" d="M199.88,512.37l8.17-11.16c6.65,5.19,13.09,8.36,20.68,8.36,8.17,0,12.02-3.84,12.02-8.97,0-6.28-8.11-9.09-16.11-12.14-9.82-3.69-21.05-9.33-21.05-21.84s10.49-22.39,27.27-22.39c10.43,0,18.79,4.24,24.89,8.97l-8.05,10.8c-5.25-3.84-10.52-6.53-16.41-6.53-7.53,0-11.1,3.6-11.1,8.3,0,5.92,7.56,8.17,15.68,11.16,10.13,3.78,21.47,8.66,21.47,22.63,0,12.87-10.19,23.24-29.1,23.24-10.25,0-21.05-4.39-28.37-10.43Z"/>
      <path class="cls-9" d="M273.06,413.23h17.57v27.88l-.73,14.46c6.28-5.92,13.73-11.35,23.97-11.35,16.04,0,23.06,10.86,23.06,29.77v46.97h-17.57v-44.72c0-12.32-3.54-16.96-11.65-16.96-6.59,0-10.92,3.23-17.08,9.33v52.34h-17.57v-107.73Z"/>
      <path class="cls-9" d="M354.13,500.84c0-16.04,13.3-24.4,44.04-27.7-.24-8.05-3.48-14.76-13.6-14.76-7.44,0-14.46,3.36-21.05,7.38l-6.47-11.71c8.24-5.19,18.85-9.82,30.75-9.82,18.73,0,27.94,11.53,27.94,32.39v44.35h-14.4l-1.34-8.3h-.49c-6.71,5.73-14.4,10.13-23.24,10.13-13.12,0-22.14-8.91-22.14-21.96ZM398.18,500.9v-16.84c-20.31,2.56-27.09,7.87-27.09,15.43,0,6.62,4.51,9.52,10.8,9.52s10.74-2.99,16.29-8.11Z"/>
      <path class="cls-9" d="M436.85,446.05h14.4l1.34,10.13h.49c6.71-6.53,14.34-11.96,24.58-11.96,16.04,0,23.06,10.86,23.06,29.77v46.97h-17.57v-44.72c0-12.32-3.54-16.96-11.65-16.96-6.59,0-10.92,3.23-17.08,9.33v52.34h-17.57v-74.91Z"/>
    </g>
  </g>
</svg>