<?xml version="1.0" encoding="UTF-8"?>
<svg id="Layer_1" data-name="Layer 1" xmlns="http://www.w3.org/2000/svg" xmlns:xlink="http://www.w3.org/1999/xlink" viewBox="0 0 576 343.6536">
  <defs>
    <linearGradient id="linear-gradient" x1="160.1203" y1="173.768" x2="354.704" y2="173.768" gradientUnits="userSpaceOnUse">
      <stop offset="0" stop-color="#703494"/>
      <stop offset="1" stop-color="#3c8ad1"/>
    </linearGradient>
  </defs>
  <rect x="-6" y="-8.9859" width="589.3333" height="357.6395" fill="#101a3d"/>
  <g>
    <polyline points="354.2073 320.857 216.8631 261.3816 161.5424 164.9251 207.4717 75.5121 287.6891 26.599" fill="none" stroke="url(#linear-gradient)" stroke-miterlimit="10" stroke-width="2.5"/>
    <polygon points="231.4274 168.297 223.4874 214.977 164.2674 166.797 231.4274 168.297" fill="#9359b6"/>
    <polygon points="231.2474 165.787 162.3874 164.267 206.3874 76.257 231.2474 165.787" fill="#9359b6"/>
    <polygon points="209.5074 78.177 255.5474 105.577 233.1075 163.127 209.5074 78.177" fill="#9359b6"/>
    <polygon points="211.9074 76.687 265.9974 78.797 256.4773 103.207 211.9074 76.687" fill="#9359b6"/>
    <polygon points="285.1774 29.597 266.7574 76.827 211.2674 74.667 285.1774 29.597" fill="#9359b6"/>
    <polygon points="286.4374 33.247 286.4374 77.597 269.3974 76.927 286.4374 33.247" fill="#9359b6"/>
    <polygon points="268.9184 78.897 287.2474 79.597 287.2474 121.037 258.6474 104.497 268.9184 78.897" fill="#9359b6"/>
    <polygon points="287.2474 124.427 287.658 139.6665 235.2173 164.577 257.7273 106.867 287.2474 124.427" fill="#9359b6"/>
    <polygon points="235.1973 167.367 287.2474 142.417 287.2474 210.787 235.1973 167.367" fill="#9359b6"/>
    <polygon points="233.7674 169.427 287.2474 214.047 287.2474 229.217 257.7248 243.1172 225.7173 216.787 233.7674 169.427" fill="#9359b6"/>
    <polygon points="352.6075 150.667 299.0374 220.207 299.0374 135.377 333.4673 119.867 352.6075 150.667" fill="#3c8ad1"/>
    <polygon points="303.2474 218.837 354.0174 152.937 373.8174 184.797 303.2474 218.837" fill="#3c8ad1"/>
    <polygon points="343.2574 278.207 371.0374 301.297 354.2073 320.857 258.173 243.363 299.0374 225.037 299.0374 223.637 375.1374 186.937 392.9473 215.597 343.2574 278.207" fill="#3c8ad1"/>
    <path d="M204.1275,76.387l7.7799.3-2.01-1.19,1.37-.83-.45-.02,75.87-46.27v49.23l-.25-.01v2l2.25.09V24.817l-84.5599,51.57Z" fill="#703494"/>
    <path d="M290.1973,23.607l-84.1799,51.33.37,1.32.64-1.28,80.22-48.92v5.11l2.95-7.56ZM232.7073,171.027l1.4001-3.6.27-1.5699-3.1301-.07,1.46,5.24Z" fill="#703494"/>
    <path d="M205.0474,75.527l1.3101.78.0499.03,3.1,1.84-.58-2.09.97-.59,75.28-45.9,1.26-.77v4.42l.8099-2.08v93.2599l1.6901,1.01V24.377l-83.89,51.15Z" fill="#703494"/>
    <polygon points="287.6891 26.599 397.8196 92.7295 331.1239 81.773 287.6891 78.6425 287.6891 26.599" fill="none" stroke="#4d64ab" stroke-miterlimit="10" stroke-width="2"/>
    <path d="M399.5674,89.717l-35.9,46.59-29.48-52.52-.05-.08-45.47-57.88-1.9601,1.54,45.3401,57.73,29.6799,52.85.16.29.2001.1201-9.48,12.31,1.4099,2.27,10.22-13.27,49.2001,29.91-13.87-79.86ZM398.0774,95.747l11.95,68.83-44.25-26.91,32.3-41.92ZM373.8174,184.797l1.3199,2.14,34.79-16.78-1.09-2.25-35.02,16.89ZM299.0374,223.637v-3.43l-4.21,5.46,4.21-2.03Z" fill="#4d64ab"/>
    <g>
      <polygon points="299.1974 111.087 298.8274 111.087 298.8374 112.337 298.8474 113.787 299.0674 112.097 300.0774 111.077 299.1974 111.087" fill="#4d64ab"/>
      <polygon points="399.3074 93.877 298.9974 136.757 298.9773 134.167 301.4773 132.897 301.4773 132.977 398.3274 91.577 399.3074 93.877" fill="#4d64ab"/>
    </g>
    <polyline points="287.6874 123.647 298.8374 112.337 299.0674 112.097 300.0774 111.077 301.6574 109.477 330.1074 80.597" fill="none" stroke="#4d64ab" stroke-miterlimit="10" stroke-width="2.5"/>
    <path d="M260.9139,155.0056l38.0544-18.2391c.0652-.0313.1407.0163.1407.0886v89.566c0,.0398-.4152-.3649-.452-.3497l-41.1347,17.5877c-.0942.0389-.178-.0737-.1137-.1528l19.9993-24.6062c.0142-.0175.022-.0394.022-.062v-55.2414c0-3.929-3.0004-7.2075-6.9139-7.5551l-8.5579-.7599c-.0995-.0088-1.1342-.233-1.0442-.2762Z" fill="#101a3d"/>
    <circle cx="397.8196" cy="92.7295" r="6.6522" fill="#3c8ad1"/>
    <circle cx="411.7326" cy="167.0773" r="6.6522" fill="#3c8ad1"/>
    <circle cx="363.9935" cy="138.3164" r="6.6522" fill="#3c8ad1"/>
    <circle cx="331.6733" cy="82.7512" r="6.6522" fill="#3c8ad1"/>
    <circle cx="207.4717" cy="75.1208" r="6.6522" fill="#703494"/>
    <circle cx="164.2674" cy="165.787" r="6.6522" fill="#703494"/>
    <circle cx="233.6891" cy="167.0773" r="6.6522" fill="#101a3d"/>
    <line x1="287.6891" y1="79.1921" x2="287.6891" y2="26.599" fill="none" stroke="#703494" stroke-miterlimit="10" stroke-width="2"/>
    <circle cx="287.6891" cy="29.1425" r="6.6522" fill="#3c8ad1"/>
    <path d="M287.6891,35.7947c-3.6739,0-6.6522-2.9783-6.6522-6.6522s2.9783-6.6522,6.6522-6.6522" fill="#703494"/>
    <polyline points="299.109 110.3154 286.4299 123.9407 287.658 139.6665 299.0374 134.2493" fill="#3c8ad1"/>
    <path d="M276.1081,135.1909l.0217-17.93c0-3.6444,2.9733-6.5987,6.641-6.5987l16.7547-.7945-23.4174,25.3231Z" fill="#101a3d"/>
    <line x1="301.7277" y1="224.3732" x2="216.4717" y2="261.5446" fill="none" stroke="#703494" stroke-miterlimit="10"/>
    <circle cx="299.037" cy="222.2512" r="6.6522" fill="#101a3d"/>
    <circle cx="216.8413" cy="261.5446" r="6.6522" fill="#703494"/>
  </g>
</svg>